<svg width="64" height="37" viewBox="0 0 64 37" fill="none" xmlns="http://www.w3.org/2000/svg">
<g clip-path="url(#clip0_190_1424)">
<path d="M-0.000213617 36.3317C0.0102234 36.2447 0.0276185 36.156 0.0276185 36.069C0.029358 35.1503 0.0276185 34.2315 0.029358 33.3128C0.032837 32.7038 0.368562 32.2496 0.921726 32.1069C1.03479 32.0774 1.15482 32.0704 1.27311 32.0704C2.99174 32.06 4.70864 32.0495 6.42727 32.0426C7.55447 32.0391 8.68167 32.0426 9.80887 32.0426C9.88367 32.0426 9.95847 32.0426 10.0454 32.0426V36.9512C9.98804 36.9547 9.93586 36.9634 9.88193 36.9634C9.00522 36.9634 8.12851 36.9599 7.2518 36.9668C7.07263 36.9668 7.00827 36.9233 7.01348 36.7354C7.02566 36.1804 7.01696 35.6253 7.01696 35.0441H3.33964C3.33095 35.0285 3.32399 35.0111 3.31529 34.9954C3.51881 34.7831 3.73277 34.5813 3.92412 34.3568C4.09633 34.1567 4.28594 34.0784 4.55556 34.0854C5.29311 34.1045 6.03066 34.0923 6.76821 34.0923C6.84301 34.0923 6.91781 34.0923 7.00479 34.0923V33.1736C6.92651 33.1701 6.85867 33.1631 6.79083 33.1631C5.71233 33.1631 4.63384 33.1631 3.55534 33.1631C3.18657 33.1631 3.04393 33.3076 3.04219 33.6834C3.04219 34.7066 3.03871 35.7297 3.04567 36.7528C3.04567 36.9146 3.00392 36.9686 2.83692 36.9686C1.89063 36.9599 0.94434 36.9634 -0.00195312 36.9616C-0.000213617 36.7493 -0.000213617 36.5405 -0.000213617 36.3317Z" fill="white"/>
<path d="M55.9426 0.0348204C55.8643 0.071361 55.786 0.111382 55.706 0.144442C52.2966 1.52255 48.9584 3.05029 45.7195 4.79554C41.9726 6.81572 38.3979 9.10212 35.0737 11.7731C32.1165 14.1482 29.4185 16.7878 27.058 19.765C24.4731 23.0258 22.3892 26.5807 20.8602 30.4575C20.7958 30.6193 20.7193 30.6768 20.5436 30.675C16.0696 30.6698 11.5955 30.6715 7.12152 30.6715C7.05368 30.6715 6.9841 30.6715 6.87451 30.6715C6.91452 30.5776 6.94061 30.5114 6.97192 30.4488C7.99128 28.3869 9.12196 26.3858 10.3935 24.4683C11.3364 23.045 12.3331 21.6599 13.4377 20.3584C14.2796 19.3648 15.1285 18.3747 16.0313 17.4403C17.95 15.455 20.0165 13.6332 22.2448 11.9993C24.574 10.2923 27.0215 8.78369 29.589 7.46475C32.5914 5.92308 35.7034 4.65286 38.911 3.60362C41.0611 2.90065 43.2302 2.27076 45.4394 1.79747C47.6521 1.32418 49.8786 0.911796 52.1052 0.516809C53.3403 0.297565 54.5927 0.172283 55.8382 0.00349982C55.8695 1.97582e-05 55.9008 0.00349982 55.9321 0.00349982C55.9356 0.01394 55.9374 0.0261202 55.9408 0.0365604L55.9426 0.0348204Z" fill="white"/>
<path d="M56.7863 0.213725C56.1653 0.620892 55.5408 1.02284 54.9267 1.43871C52.6062 3.00821 50.4144 4.7378 48.4366 6.73014C46.7423 8.43537 45.2464 10.2955 44.0165 12.3644C42.7154 14.5533 41.7691 16.8867 41.209 19.3732C40.8854 20.8052 40.6941 22.2547 40.6175 23.7233C40.5427 25.1727 40.5827 26.6169 40.7184 28.0594C40.7915 28.8407 40.9219 29.615 41.0263 30.3928C41.0368 30.4676 41.0402 30.5424 41.0507 30.6434H21.7734C21.7961 30.5772 21.8169 30.5076 21.843 30.4398C23.5112 26.2428 25.8213 22.4287 28.7106 18.9625C30.5597 16.744 32.6019 14.7169 34.8024 12.8481C38.3249 9.85697 42.1622 7.32871 46.2118 5.11365C49.569 3.27792 53.0359 1.67361 56.5897 0.252005C56.6523 0.227645 56.7167 0.205024 56.7793 0.180664C56.7828 0.191104 56.7845 0.203284 56.788 0.213725H56.7863Z" fill="white"/>
<path d="M57.7795 0.229687C57.7326 0.283628 57.6856 0.341049 57.6352 0.39325C56.3114 1.82703 55.0868 3.33912 54.0152 4.97301C52.5871 7.15153 51.4634 9.47099 50.905 12.0288C50.7241 12.8588 50.6493 13.7149 50.5397 14.5588C50.4353 15.3558 50.4771 16.1562 50.5501 16.9531C50.6823 18.4113 51.0059 19.8294 51.5086 21.2057C52.2479 23.2277 53.3125 25.0704 54.5875 26.7965C55.5477 28.098 56.6141 29.3091 57.7534 30.4557C57.8056 30.5079 57.8543 30.5654 57.9378 30.6558C57.823 30.6611 57.7517 30.6663 57.6804 30.6663C52.5175 30.6593 47.3547 30.6506 42.1918 30.6472C41.9987 30.6472 41.8996 30.6263 41.8752 30.3931C41.7691 29.3647 41.6021 28.3399 41.5273 27.3098C41.4542 26.2988 41.4177 25.2792 41.4473 24.2665C41.5673 20.1878 42.5954 16.3528 44.6202 12.7979C45.6465 10.9953 46.8763 9.34048 48.2731 7.80752C50.7658 5.07219 53.6482 2.81363 56.7497 0.819557C57.0803 0.607273 57.4142 0.40021 57.7465 0.191406C57.7569 0.203586 57.7674 0.217507 57.7778 0.229687H57.7795Z" fill="white"/>
<path d="M31.7581 32.0671V36.9479H28.7366V34.0351C28.7209 34.0246 28.7036 34.0142 28.6879 34.0038C27.9608 34.7015 27.2319 35.3993 26.4909 36.1109C25.7394 35.401 25.0001 34.7032 24.2139 33.962V36.9461C24.1304 36.9531 24.0695 36.9601 24.0086 36.9601C23.1319 36.9601 22.2552 36.9583 21.3785 36.9618C21.2324 36.9618 21.1663 36.9287 21.168 36.7652C21.1732 35.227 21.1715 33.6888 21.1715 32.1524C21.1715 32.1245 21.1767 32.0984 21.1837 32.0393H21.3837C22.2187 32.0393 23.0536 32.0358 23.8886 32.0445C23.9912 32.0445 24.1165 32.0984 24.1913 32.168C24.9306 32.864 25.6594 33.5687 26.3935 34.2717C26.4318 34.3083 26.4787 34.3396 26.5309 34.3796C27.0528 33.8733 27.5642 33.3739 28.0791 32.8762C28.3383 32.6257 28.5992 32.3733 28.8636 32.128C28.9106 32.0845 28.9801 32.0427 29.041 32.0427C29.9316 32.0393 30.8223 32.0427 31.7129 32.0427C31.7251 32.0427 31.7373 32.0532 31.7616 32.0636L31.7581 32.0671Z" fill="white"/>
<path d="M39.591 35.0423H35.8145C36.1415 34.7099 36.4285 34.4124 36.726 34.127C36.7695 34.0853 36.8686 34.0888 36.9417 34.0888C37.8114 34.087 38.6795 34.0888 39.5666 34.0888V33.1631H39.3718C38.2863 33.1631 37.2009 33.1631 36.1172 33.1631C35.7658 33.1631 35.6145 33.3144 35.6127 33.6729C35.6127 34.6891 35.6075 35.7052 35.6162 36.7197C35.6162 36.9128 35.5623 36.9685 35.3709 36.9668C34.5081 36.9581 33.6453 36.9633 32.7825 36.9633C32.7216 36.9633 32.659 36.9633 32.5703 36.9633V36.7266C32.5703 35.6269 32.5703 34.5272 32.5703 33.4293C32.5703 32.5558 33.0817 32.0425 33.9532 32.0425C36.7573 32.0425 39.5597 32.0425 42.3637 32.0425H42.6177V36.9511H39.5944V35.044L39.591 35.0423Z" fill="white"/>
<path d="M53.9923 36.9616C54.3263 36.5892 54.6186 36.2568 54.923 35.9367C54.9682 35.8897 55.0743 35.8845 55.1526 35.8845C56.9547 35.881 58.7551 35.8827 60.5573 35.8827C60.9278 35.8827 61.1191 35.5521 60.9434 35.2233C60.8634 35.0736 60.7382 35.0388 60.5799 35.0388C58.8752 35.0423 57.1722 35.0475 55.4674 35.0388C54.8969 35.0353 54.4046 34.8457 54.095 34.3237C53.5383 33.3858 54.1037 32.2113 55.1804 32.0738C55.3318 32.0547 55.4848 32.0442 55.6362 32.0442C57.7793 32.0425 59.9206 32.0442 62.0637 32.0442C62.4081 32.0442 62.7543 32.0442 63.1578 32.0442C63.0917 32.1469 63.0708 32.1956 63.0361 32.2322C62.7682 32.5158 62.5055 32.8029 62.2254 33.0726C62.1628 33.1335 62.0411 33.1596 61.9471 33.1596C60.4511 33.1648 58.9569 33.1631 57.4609 33.1648C57.2157 33.1648 57.0661 33.2605 57.0052 33.4519C56.9408 33.652 57.0052 33.8921 57.1896 34.0052C57.2818 34.0627 57.4105 34.087 57.5218 34.087C59.1569 34.0922 60.7903 34.087 62.4255 34.0922C62.7925 34.0922 63.1387 34.174 63.4396 34.4054C63.8745 34.7395 64.0676 35.3485 63.9128 35.9471C63.7788 36.4656 63.3352 36.8572 62.789 36.9268C62.6099 36.9494 62.429 36.9633 62.2498 36.9633C59.5918 36.965 56.9356 36.9633 54.2776 36.9633C54.2028 36.9633 54.1263 36.9633 53.9941 36.9633L53.9923 36.9616Z" fill="white"/>
<path d="M49.9727 33.1614V36.9495H46.8573V33.1684H43.4287C43.7349 32.8448 44.0132 32.5855 44.2498 32.2914C44.4168 32.0844 44.6029 32.0356 44.8551 32.0356C47.5322 32.0443 50.2093 32.0409 52.8882 32.0409H53.1856C52.963 32.2862 52.7542 32.4794 52.5907 32.7056C52.3211 33.0779 51.9854 33.2102 51.5261 33.1719C51.0234 33.1301 50.5137 33.1614 49.9727 33.1614Z" fill="white"/>
<path d="M10.9121 32.0513H13.9528V35.8828H20.3472C20.2289 36.0185 20.1472 36.1177 20.0602 36.2117C19.9697 36.3091 19.8549 36.3874 19.7871 36.497C19.5262 36.9147 19.1504 36.9756 18.6877 36.9721C16.1776 36.9512 13.6658 36.9616 11.1556 36.9616H10.9138V32.0513H10.9121Z" fill="white"/>
</g>
<defs>
<clipPath id="clip0_190_1424">
<rect width="64" height="37" fill="white"/>
</clipPath>
</defs>
</svg>
