<svg width="70" height="70" viewBox="0 0 70 70" fill="none" xmlns="http://www.w3.org/2000/svg">
<g id="cart-shopping-fast-svgrepo-com 1">
<path id="Vector" d="M21.291 15.2315H64.1666L58.3332 37.9167H24.4321M61.2499 50.8796H26.2499L20.4166 8.75H11.6666M11.6666 24.9537H5.83325M14.5833 34.6759H5.83325M17.4999 44.3981H5.83325M29.1666 63.8426C29.1666 65.6325 27.8607 67.0833 26.2499 67.0833C24.6391 67.0833 23.3333 65.6325 23.3333 63.8426C23.3333 62.0527 24.6391 60.6019 26.2499 60.6019C27.8607 60.6019 29.1666 62.0527 29.1666 63.8426ZM61.2499 63.8426C61.2499 65.6325 59.9441 67.0833 58.3332 67.0833C56.7224 67.0833 55.4166 65.6325 55.4166 63.8426C55.4166 62.0527 56.7224 60.6019 58.3332 60.6019C59.9441 60.6019 61.2499 62.0527 61.2499 63.8426Z" stroke="#FCE000" stroke-width="5" stroke-linecap="round" stroke-linejoin="round"/>
</g>
</svg>
