<svg width="31" height="30" viewBox="0 0 31 30" fill="none" xmlns="http://www.w3.org/2000/svg">
<path d="M9.62475 6.52778H28L25.5 16.25H10.9709M26.75 21.8056H11.75L9.25 3.75H5.5M5.5 10.6944H3M6.75 14.8611H3M8 19.0278H3M13 27.3611C13 28.1282 12.4403 28.75 11.75 28.75C11.0596 28.75 10.5 28.1282 10.5 27.3611C10.5 26.594 11.0596 25.9722 11.75 25.9722C12.4403 25.9722 13 26.594 13 27.3611ZM26.75 27.3611C26.75 28.1282 26.1904 28.75 25.5 28.75C24.8096 28.75 24.25 28.1282 24.25 27.3611C24.25 26.594 24.8096 25.9722 25.5 25.9722C26.1904 25.9722 26.75 26.594 26.75 27.3611Z" stroke="black" stroke-width="2" stroke-linecap="round" stroke-linejoin="round"/>
</svg>
