<svg width="40" height="40" viewBox="0 0 40 40" fill="none" xmlns="http://www.w3.org/2000/svg">
<path d="M22.412 34.8419C22.9767 34.5626 23.3333 33.9918 23.3333 33.3674V24.4998C23.3333 24.0626 23.5089 23.6433 23.8215 23.3341L34.0233 13.2429C34.6483 12.6247 35 11.7856 35 10.9102V6.64859C35 5.73692 34.255 5 33.3333 5H6.66667C5.745 5 5 5.73692 5 6.64859V10.9102C5 11.7856 5.35167 12.6247 5.97667 13.2429L16.1785 23.3341C16.4911 23.6433 16.6667 24.0626 16.6667 24.4998V35.016C16.6667 36.2415 17.9705 37.0386 19.0787 36.4905L22.412 34.8419Z" fill="#FCE000"/>
</svg>
