<svg width="40" height="40" viewBox="0 0 40 40" fill="none" xmlns="http://www.w3.org/2000/svg">
<path d="M31.1282 32.6784L21.6032 23.1517C17.366 26.1642 11.5273 25.4273 8.17134 21.4566C4.8154 17.4859 5.06182 11.6061 8.73822 7.93007C12.4137 4.25248 18.2941 4.005 22.2655 7.36077C26.237 10.7165 26.9742 16.5558 23.9616 20.7934L33.4866 30.3201L31.1299 32.6767L31.1282 32.6784ZM15.8082 8.33338C12.6477 8.33267 9.92104 10.5512 9.27901 13.6458C8.63698 16.7404 10.2561 19.8605 13.156 21.1171C16.056 22.3737 19.4397 21.4215 21.2586 18.8368C23.0775 16.2522 22.8317 12.7456 20.6699 10.4401L21.6782 11.4401L20.5416 10.3067L20.5216 10.2867C19.2745 9.03203 17.5772 8.32862 15.8082 8.33338Z" fill="#FCE000"/>
</svg>
