<svg xmlns="http://www.w3.org/2000/svg" width="80" height="46" viewBox="0 0 80 46" fill="none">
  <g clip-path="url(#clip0_190_1197)">
    <path d="M-0.000267021 45.1694C0.0127793 45.0612 0.0345232 44.9509 0.0345232 44.8427C0.0366975 43.7005 0.0345232 42.5583 0.0366975 41.4161C0.0410463 40.6589 0.460703 40.0943 1.15216 39.9169C1.29349 39.8802 1.44353 39.8715 1.59138 39.8715C3.73968 39.8585 5.88579 39.8455 8.03409 39.8369C9.44309 39.8326 10.8521 39.8369 12.2611 39.8369C12.3546 39.8369 12.4481 39.8369 12.5568 39.8369V45.9395C12.4851 45.9438 12.4198 45.9546 12.3524 45.9546C11.2565 45.9546 10.1606 45.9503 9.06475 45.959C8.84078 45.959 8.76033 45.9049 8.76686 45.6713C8.78208 44.9812 8.7712 44.2911 8.7712 43.5685H4.17455C4.16368 43.5491 4.15498 43.5274 4.14411 43.508C4.39852 43.2441 4.66596 42.9931 4.90515 42.714C5.12041 42.4653 5.35742 42.3679 5.69445 42.3766C6.61639 42.4004 7.53833 42.3852 8.46027 42.3852C8.55377 42.3852 8.64726 42.3852 8.75598 42.3852V41.243C8.65814 41.2387 8.57334 41.23 8.48853 41.23C7.14042 41.23 5.7923 41.23 4.44418 41.23C3.98321 41.23 3.80491 41.4096 3.80273 41.8769C3.80273 43.1489 3.79838 44.4209 3.80708 45.6929C3.80708 45.8941 3.7549 45.9611 3.54616 45.9611C2.36329 45.9503 1.18042 45.9546 -0.00244141 45.9525C-0.000267021 45.6886 -0.000267021 45.429 -0.000267021 45.1694Z" fill="#1E1E1E"/>
    <path d="M69.9283 0.0433034C69.8305 0.0887323 69.7326 0.138488 69.6326 0.17959C65.3708 1.89291 61.1982 3.79227 57.1495 5.96204C52.4658 8.47361 47.9975 11.3162 43.8422 14.6368C40.1458 17.5897 36.7733 20.8714 33.8227 24.5727C30.5915 28.6267 27.9866 33.0463 26.0753 37.8661C25.9949 38.0673 25.8992 38.1387 25.6796 38.1365C20.0871 38.13 14.4945 38.1322 8.90202 38.1322C8.81722 38.1322 8.73025 38.1322 8.59326 38.1322C8.64327 38.0154 8.67589 37.9332 8.71503 37.8553C9.98922 35.2918 11.4026 32.804 12.992 30.4201C14.1706 28.6505 15.4165 26.9286 16.7972 25.3104C17.8496 24.0752 18.9107 22.8443 20.0392 21.6826C22.4376 19.2143 25.0207 16.9493 27.8061 14.918C30.7176 12.7958 33.777 10.9203 36.9864 9.28051C40.7394 7.36385 44.6294 5.78465 48.6389 4.48019C51.3265 3.60623 54.0379 2.82312 56.7994 2.23471C59.5652 1.64629 62.3484 1.1336 65.1316 0.642532C66.6755 0.369959 68.241 0.214203 69.7979 0.00436432C69.837 3.77612e-05 69.8762 0.00436432 69.9153 0.00436432C69.9196 0.017344 69.9218 0.032487 69.9262 0.0454667L69.9283 0.0433034Z" fill="#1E1E1E"/>
    <path d="M70.9828 0.2662C70.2066 0.772408 69.426 1.27213 68.6584 1.78915C65.7578 3.74043 63.0181 5.89073 60.5458 8.36769C58.4279 10.4877 56.558 12.8002 55.0207 15.3724C53.3942 18.0938 52.2114 20.9948 51.5112 24.0861C51.1068 25.8665 50.8676 27.6685 50.7719 29.4943C50.6784 31.2963 50.7284 33.0918 50.898 34.8852C50.9894 35.8565 51.1524 36.8192 51.2829 37.7861C51.2959 37.8792 51.3003 37.9722 51.3133 38.0977H27.2168C27.2451 38.0154 27.2712 37.9289 27.3038 37.8445C29.389 32.6267 32.2766 27.8848 35.8882 23.5755C38.1996 20.8174 40.7523 18.2971 43.5029 15.9738C47.9061 12.2551 52.7028 9.11185 57.7647 6.358C61.9613 4.07574 66.2949 2.08119 70.7371 0.313792C70.8154 0.283506 70.8959 0.255384 70.9741 0.225098C70.9785 0.238077 70.9807 0.25322 70.985 0.2662H70.9828Z" fill="#1E1E1E"/>
    <path d="M72.2245 0.285629C72.1658 0.352691 72.1071 0.424079 72.0441 0.488978C70.3894 2.27152 68.8586 4.15141 67.5192 6.18273C65.734 8.89116 64.3294 11.7748 63.6314 14.9548C63.4052 15.9867 63.3117 17.0511 63.1748 18.1002C63.0443 19.091 63.0965 20.0861 63.1878 21.0769C63.3531 22.8897 63.7575 24.6528 64.3859 26.364C65.31 28.8777 66.6407 31.1686 68.2345 33.3146C69.4348 34.9327 70.7677 36.4384 72.1919 37.864C72.2572 37.9289 72.318 38.0003 72.4224 38.1128C72.2789 38.1192 72.1898 38.1257 72.1006 38.1257C65.647 38.1171 59.1935 38.1063 52.7399 38.1019C52.4985 38.1019 52.3746 38.076 52.3441 37.7861C52.2115 36.5076 52.0028 35.2334 51.9093 33.9528C51.8179 32.6959 51.7723 31.4282 51.8092 30.1692C51.9593 25.0985 53.2443 20.3306 55.7753 15.911C57.0582 13.6698 58.5955 11.6126 60.3415 9.70672C63.4574 6.30604 67.0604 3.4981 70.9373 1.01898C71.3504 0.755061 71.7679 0.497631 72.1832 0.238037C72.1963 0.25318 72.2093 0.270486 72.2224 0.285629H72.2245Z" fill="#1E1E1E"/>
    <path d="M39.6977 39.8673V45.9353H35.9208V42.3139C35.9012 42.3009 35.8794 42.288 35.8599 42.275C34.951 43.1425 34.0399 44.0099 33.1136 44.8947C32.1743 44.0121 31.2502 43.1446 30.2674 42.2231V45.9331C30.163 45.9417 30.0869 45.9504 30.0108 45.9504C28.9149 45.9504 27.819 45.9482 26.7231 45.9526C26.5405 45.9526 26.4578 45.9115 26.46 45.7081C26.4665 43.7958 26.4644 41.8834 26.4644 39.9733C26.4644 39.9386 26.4709 39.9062 26.4796 39.8326H26.7296C27.7733 39.8326 28.817 39.8283 29.8607 39.8391C29.989 39.8391 30.1456 39.9062 30.2391 39.9927C31.1632 40.858 32.0743 41.7342 32.9919 42.6081C33.0397 42.6536 33.0984 42.6925 33.1636 42.7423C33.8159 42.1127 34.4552 41.4919 35.0988 40.8732C35.4228 40.5617 35.749 40.248 36.0795 39.943C36.1382 39.8889 36.2252 39.837 36.3013 39.837C37.4146 39.8326 38.5278 39.837 39.6411 39.837C39.6563 39.837 39.6716 39.8499 39.702 39.8629L39.6977 39.8673Z" fill="#1E1E1E"/>
    <path d="M49.4887 43.5664H44.7681C45.1769 43.1532 45.5357 42.7833 45.9075 42.4285C45.9619 42.3766 46.0858 42.3809 46.1771 42.3809C47.2643 42.3788 48.3493 42.3809 49.4583 42.3809V41.2301H49.2147C47.8579 41.2301 46.5011 41.2301 45.1465 41.2301C44.7072 41.2301 44.5181 41.4183 44.5159 41.8639C44.5159 43.1273 44.5094 44.3906 44.5202 45.6518C44.5202 45.8919 44.4528 45.9612 44.2136 45.959C43.1352 45.9482 42.0567 45.9547 40.9782 45.9547C40.9021 45.9547 40.8238 45.9547 40.7129 45.9547V45.6605C40.7129 44.2933 40.7129 42.9261 40.7129 41.561C40.7129 40.4751 41.3522 39.8369 42.4415 39.8369C45.9466 39.8369 49.4496 39.8369 52.9547 39.8369H53.2721V45.9395H49.4931V43.5686L49.4887 43.5664Z" fill="#1E1E1E"/>
    <path d="M67.4908 45.9525C67.9083 45.4896 68.2736 45.0764 68.6541 44.6784C68.7106 44.6199 68.8433 44.6135 68.9411 44.6135C71.1938 44.6091 73.4443 44.6113 75.6969 44.6113C76.1601 44.6113 76.3993 44.2003 76.1796 43.7914C76.0796 43.6054 75.9231 43.5621 75.7252 43.5621C73.5943 43.5664 71.4656 43.5729 69.3347 43.5621C68.6215 43.5578 68.0061 43.322 67.6191 42.673C66.9233 41.507 67.63 40.0468 68.9759 39.8759C69.1651 39.8521 69.3564 39.8391 69.5456 39.8391C72.2244 39.8369 74.9011 39.8391 77.58 39.8391C78.0105 39.8391 78.4432 39.8391 78.9476 39.8391C78.865 39.9667 78.8389 40.0273 78.7954 40.0727C78.4606 40.4253 78.1322 40.7823 77.7822 41.1176C77.7039 41.1933 77.5517 41.2258 77.4343 41.2258C75.5643 41.2322 73.6965 41.2301 71.8265 41.2322C71.5199 41.2322 71.3329 41.3512 71.2568 41.5892C71.1764 41.838 71.2568 42.1365 71.4873 42.2771C71.6026 42.3485 71.7635 42.3788 71.9026 42.3788C73.9465 42.3853 75.9883 42.3788 78.0322 42.3853C78.491 42.3853 78.9237 42.4869 79.2999 42.7747C79.8435 43.19 80.0848 43.9472 79.8913 44.6913C79.7239 45.336 79.1694 45.8227 78.4867 45.9093C78.2627 45.9374 78.0366 45.9547 77.8126 45.9547C74.4901 45.9569 71.1699 45.9547 67.8474 45.9547C67.7539 45.9547 67.6582 45.9547 67.493 45.9547L67.4908 45.9525Z" fill="#1E1E1E"/>
    <path d="M62.4657 41.2278V45.9372H58.5714V41.2364H54.2856C54.6683 40.834 55.0162 40.5117 55.312 40.1461C55.5207 39.8887 55.7534 39.8281 56.0686 39.8281C59.415 39.8389 62.7614 39.8346 66.11 39.8346H66.4818C66.2035 40.1396 65.9425 40.3798 65.7381 40.661C65.4011 41.1239 64.9814 41.2883 64.4074 41.2407C63.779 41.1888 63.1419 41.2278 62.4657 41.2278Z" fill="#1E1E1E"/>
    <path d="M13.6396 39.8477H17.4405V44.6112H25.4335C25.2857 44.7799 25.1835 44.9032 25.0747 45.0201C24.9617 45.1412 24.8182 45.2386 24.7334 45.3748C24.4072 45.894 23.9375 45.9697 23.3592 45.9654C20.2215 45.9395 17.0817 45.9524 13.9441 45.9524H13.6418V39.8477H13.6396Z" fill="#1E1E1E"/>
  </g>
  <defs>
    <clipPath id="clip0_190_1197">
      <rect width="80" height="46" fill="white"/>
    </clipPath>
  </defs>
</svg>