<svg width="271" height="271" viewBox="0 0 271 271" fill="none" xmlns="http://www.w3.org/2000/svg">
<rect x="2.5" y="2.5" width="246" height="246" rx="7.5" fill="#FFFCE8" stroke="#121212" stroke-width="5"/>
<rect x="22.5" y="22.5" width="246" height="246" rx="7.5" fill="#FCE000" stroke="#121212" stroke-width="5"/>
<path d="M220 147.38C220 147.219 219.928 147.091 219.916 146.929C219.872 146.548 219.839 146.16 219.687 145.789L219.678 145.777C219.678 145.773 219.678 145.773 219.678 145.769L199.329 97.1841H208.769C211.049 97.1841 212.894 95.3408 212.894 93.0592C212.894 90.7791 211.049 88.9342 208.769 88.9342H193.154C193.146 88.9342 193.138 88.9342 193.13 88.9342C193.121 88.9342 193.113 88.9342 193.105 88.9342H96.8971C96.8871 88.9342 96.8795 88.9342 96.8702 88.9342C96.8626 88.9342 96.858 88.9342 96.8503 88.9342H81.2314C78.9514 88.9342 77.1065 90.7799 77.1065 93.0592C77.1065 95.3415 78.9514 97.1841 81.2314 97.1841H90.6709L70.3246 145.773C70.3246 145.773 70.3208 145.773 70.3208 145.777L70.3162 145.789C70.1228 146.246 70.053 146.735 70.0322 147.215C70.0322 147.275 70 147.32 70 147.38C70 147.505 70.0161 147.63 70.02 147.758C70.02 147.767 70.02 147.775 70.02 147.784C70.2379 162.414 82.1884 174.25 96.8702 174.25C111.682 174.25 123.727 162.212 123.744 147.411C123.744 147.399 123.744 147.391 123.744 147.384V147.379C123.744 147.222 123.669 147.09 123.657 146.936C123.611 146.552 123.582 146.163 123.426 145.792L123.422 145.78C123.422 145.776 123.418 145.776 123.418 145.772L103.07 97.1803H140.87V194.817H115.435C113.154 194.817 111.31 196.662 111.31 198.942C111.31 201.226 113.155 203.067 115.435 203.067H174.566C176.846 203.067 178.692 201.226 178.692 198.942C178.692 196.662 176.846 194.817 174.566 194.817H149.122V97.1803H186.931L166.583 145.769C166.583 145.769 166.583 145.769 166.583 145.773L166.574 145.785C166.379 146.243 166.312 146.728 166.292 147.21C166.292 147.267 166.26 147.315 166.26 147.376C166.26 147.5 166.276 147.63 166.279 147.75C166.279 147.758 166.279 147.766 166.279 147.775C166.497 162.405 178.45 174.25 193.13 174.25C207.938 174.25 219.984 162.212 220 147.404C220 147.396 220 147.388 220 147.38ZM96.8702 103.738L113.418 143.25H80.3297L96.8702 103.738ZM193.13 103.738L209.678 143.25H176.585L193.13 103.738Z" fill="#121212"/>
</svg>
