<svg width="271" height="271" viewBox="0 0 271 271" fill="none" xmlns="http://www.w3.org/2000/svg">
<rect x="2.5" y="2.5" width="246" height="246" rx="7.5" fill="#FFFCE8" stroke="#121212" stroke-width="5"/>
<rect x="22.5" y="22.5" width="246" height="246" rx="7.5" fill="#FCE000" stroke="#121212" stroke-width="5"/>
<path d="M214.032 76.821C212.423 75.2117 209.815 75.2117 208.205 76.821L166.651 118.375C165.043 119.984 165.043 122.593 166.651 124.202C168.261 125.811 170.87 125.811 172.478 124.202L214.032 82.6481C215.642 81.0387 215.642 78.4295 214.032 76.821Z" fill="#121212"/>
<path d="M207.79 143.275L201.585 106.959L186.7 121.846C186.706 126.394 184.979 130.944 181.516 134.407C174.604 141.318 163.359 141.318 156.446 134.407C149.535 127.496 149.535 116.25 156.446 109.337C159.91 105.874 164.462 104.145 169.012 104.154L183.899 89.2683L147.579 83.0635C143.585 82.3812 139.491 83.6832 136.626 86.5491L81.4951 141.679C72.3206 150.854 72.3206 165.783 81.4951 174.958L115.895 209.357C125.07 218.533 139.999 218.533 149.174 209.357L204.304 154.227C207.168 151.363 208.472 147.267 207.79 143.275Z" fill="#121212"/>
</svg>
