<svg width="271" height="271" viewBox="0 0 271 271" fill="none" xmlns="http://www.w3.org/2000/svg">
<rect x="2.5" y="2.5" width="246" height="246" rx="7.5" fill="#FFFCE8" stroke="#121212" stroke-width="5"/>
<rect x="22.5" y="22.5" width="246" height="246" rx="7.5" fill="#FCE000" stroke="#121212" stroke-width="5"/>
<path d="M158.882 192.995L150.951 189.691C152.71 188.658 154.168 187.182 155.18 185.411C156.192 183.639 156.722 181.634 156.719 179.594V164.75C156.719 164.128 156.472 163.532 156.032 163.093C155.593 162.653 154.997 162.406 154.375 162.406H145C141.893 162.41 138.914 163.646 136.718 165.843C134.521 168.039 133.285 171.018 133.281 174.125V179.594C133.278 181.634 133.808 183.639 134.82 185.411C135.832 187.182 137.29 188.658 139.049 189.691L131.118 192.995C128.98 193.882 127.153 195.383 125.869 197.309C124.585 199.234 123.902 201.498 123.906 203.812V213.969C123.906 214.59 124.153 215.186 124.593 215.626C125.032 216.066 125.628 216.312 126.25 216.312H163.75C164.372 216.312 164.968 216.066 165.407 215.626C165.847 215.186 166.094 214.59 166.094 213.969V203.812C166.098 201.498 165.415 199.234 164.131 197.309C162.847 195.383 161.02 193.882 158.882 192.995ZM137.969 179.594V174.125C137.971 172.261 138.712 170.474 140.031 169.156C141.349 167.837 143.136 167.096 145 167.094H152.031V179.594C152.034 180.983 151.624 182.341 150.854 183.496C150.083 184.652 148.987 185.552 147.704 186.084L145 187.211L142.296 186.084C141.013 185.552 139.917 184.652 139.147 183.496C138.376 182.341 137.966 180.983 137.969 179.594Z" fill="#121212"/>
<path d="M123.906 179.783L126.535 177.155C127.189 176.504 127.709 175.729 128.062 174.876C128.416 174.022 128.596 173.107 128.594 172.184V166.249C128.59 164.625 128.026 163.051 126.996 161.795C125.966 160.539 124.534 159.676 122.942 159.354L116.875 158.141V148.344C116.875 146.479 116.134 144.691 114.816 143.372C113.497 142.053 111.709 141.312 109.844 141.312C107.979 141.312 106.191 142.053 104.872 143.372C103.553 144.691 102.813 146.479 102.813 148.344V161.436L101.673 160.296C100.458 159.081 98.822 158.381 97.1045 158.342C95.387 158.303 93.7206 158.928 92.4521 160.087C91.1835 161.245 90.4105 162.848 90.2938 164.562C90.177 166.276 90.7256 167.969 91.8254 169.289L100.469 179.661V188.188C100.469 188.809 100.716 189.405 101.155 189.845C101.595 190.284 102.191 190.531 102.813 190.531H121.563C122.184 190.531 122.78 190.284 123.22 189.845C123.659 189.405 123.906 188.809 123.906 188.188V179.783ZM123.22 173.841L120.592 176.469H103.91L95.4266 166.288C95.0992 165.895 94.9358 165.391 94.9706 164.881C95.0053 164.371 95.2354 163.893 95.6131 163.548C95.9907 163.204 96.4868 163.018 96.9981 163.029C97.5094 163.041 97.9966 163.249 98.3583 163.61L103.499 168.751C103.827 169.079 104.244 169.302 104.699 169.392C105.154 169.483 105.625 169.436 106.053 169.259C106.481 169.082 106.847 168.781 107.105 168.396C107.363 168.01 107.5 167.557 107.5 167.094V148.344C107.5 147.722 107.747 147.126 108.187 146.686C108.626 146.247 109.222 146 109.844 146C110.465 146 111.062 146.247 111.501 146.686C111.941 147.126 112.188 147.722 112.188 148.344V160.062C112.188 160.604 112.375 161.129 112.719 161.548C113.062 161.967 113.54 162.254 114.072 162.361L122.022 163.951C122.553 164.058 123.031 164.346 123.374 164.764C123.717 165.183 123.905 165.708 123.906 166.249V172.184C123.907 172.491 123.847 172.796 123.729 173.081C123.611 173.365 123.438 173.624 123.22 173.841Z" fill="#121212"/>
<path d="M118.883 126.544C116.117 121.941 114.618 116.689 114.536 111.319C114.454 105.95 115.793 100.654 118.417 95.9686C121.04 91.2832 124.856 87.3744 129.477 84.6382C134.097 81.9021 139.359 80.4358 144.729 80.388C150.099 80.3401 155.386 81.7124 160.055 84.3657C164.724 87.019 168.608 90.8592 171.315 95.4971C174.022 100.135 175.455 105.406 175.469 110.776C175.483 116.146 174.077 121.425 171.394 126.076L175.452 128.424C178.549 123.056 180.172 116.965 180.157 110.768C180.142 104.571 178.489 98.4879 175.366 93.1353C172.243 87.7828 167.76 83.3508 162.373 80.2886C156.985 77.2263 150.884 75.6426 144.687 75.6979C138.49 75.7531 132.418 77.4454 127.086 80.6032C121.754 83.761 117.351 88.2722 114.324 93.6796C111.297 99.087 109.752 105.198 109.848 111.395C109.943 117.591 111.675 123.652 114.867 128.964L118.883 126.544Z" fill="#121212"/>
<path d="M177.812 192.875H182.5V188.188H194.219C194.84 188.187 195.436 187.941 195.876 187.501C196.316 187.061 196.562 186.465 196.562 185.844V171.781C196.562 171.16 196.316 170.564 195.876 170.124C195.436 169.684 194.84 169.438 194.219 169.438H182.5V164.75H194.219C194.84 164.75 195.436 164.503 195.876 164.063C196.316 163.624 196.562 163.028 196.562 162.406V148.344C196.562 147.722 196.316 147.126 195.876 146.687C195.436 146.247 194.84 146 194.219 146H182.5V141.312H177.812V146H166.094C165.472 146 164.876 146.247 164.437 146.687C163.997 147.126 163.75 147.722 163.75 148.344V162.406C163.75 163.028 163.997 163.624 164.437 164.063C164.876 164.503 165.472 164.75 166.094 164.75H177.812V169.438H166.094C165.472 169.438 164.876 169.684 164.437 170.124C163.997 170.564 163.75 171.16 163.75 171.781V185.844C163.75 186.465 163.997 187.061 164.437 187.501C164.876 187.941 165.472 188.187 166.094 188.188H177.812V192.875Z" fill="#121212"/>
<path d="M109.844 197.562C104.292 197.56 98.8462 196.041 94.0951 193.168C89.3441 190.296 85.4682 186.18 82.8863 181.265C80.3044 176.35 79.1146 170.823 79.4454 165.281C79.7762 159.739 81.6152 154.393 84.7635 149.82C87.9118 145.247 92.2498 141.621 97.3089 139.335C102.368 137.048 107.956 136.187 113.468 136.845C118.981 137.503 124.209 139.655 128.588 143.069C132.966 146.482 136.329 151.027 138.313 156.212L142.69 154.538C140.245 148.156 135.992 142.625 130.451 138.623C124.91 134.622 118.322 132.323 111.495 132.008C104.667 131.693 97.8963 133.377 92.0109 136.852C86.1255 140.327 81.3812 145.442 78.3591 151.573C75.337 157.703 74.1682 164.582 74.996 171.366C75.8237 178.151 78.612 184.546 83.0194 189.77C87.4268 194.994 93.262 198.819 99.8103 200.777C106.359 202.735 113.336 202.741 119.887 200.794L118.55 196.301C115.724 197.14 112.791 197.565 109.844 197.562Z" fill="#121212"/>
<path d="M180.156 131.938C173.037 131.937 166.085 134.098 160.22 138.133C154.355 142.168 149.853 147.889 147.309 154.538L151.687 156.212C153.807 150.681 157.493 145.889 162.295 142.421C167.097 138.953 172.806 136.961 178.722 136.689C184.639 136.416 190.507 137.875 195.607 140.887C200.708 143.898 204.819 148.332 207.438 153.644C210.057 158.957 211.07 164.918 210.352 170.797C209.635 176.677 207.219 182.22 203.399 186.747C199.58 191.274 194.523 194.589 188.848 196.286C183.174 197.983 177.127 197.988 171.45 196.301L170.112 200.794C174.948 202.235 180.037 202.618 185.034 201.917C190.031 201.217 194.819 199.449 199.072 196.733C203.325 194.018 206.944 190.419 209.683 186.181C212.421 181.943 214.216 177.166 214.944 172.173C215.672 167.18 215.317 162.088 213.903 157.245C212.489 152.401 210.049 147.918 206.749 144.101C203.449 140.284 199.366 137.222 194.777 135.124C190.188 133.025 185.202 131.938 180.156 131.938Z" fill="#121212"/>
<path d="M145 87.4062C140.365 87.4062 135.833 88.7808 131.979 91.3562C128.125 93.9315 125.121 97.592 123.347 101.875C121.573 106.157 121.109 110.87 122.013 115.416C122.917 119.963 125.149 124.139 128.427 127.417C131.705 130.694 135.881 132.927 140.428 133.831C144.974 134.735 149.687 134.271 153.969 132.497C158.252 130.723 161.912 127.719 164.488 123.865C167.063 120.011 168.438 115.479 168.438 110.844C168.431 104.63 165.959 98.6725 161.565 94.2787C157.171 89.8848 151.214 87.4133 145 87.4062ZM135.625 101.469H140.313V106.156H135.625V101.469ZM145 122.562C142.514 122.56 140.132 121.571 138.374 119.813C136.616 118.056 135.628 115.673 135.625 113.188H140.313C140.313 114.431 140.806 115.623 141.685 116.502C142.565 117.381 143.757 117.875 145 117.875C146.243 117.875 147.436 117.381 148.315 116.502C149.194 115.623 149.688 114.431 149.688 113.188H154.375C154.372 115.673 153.384 118.056 151.626 119.813C149.868 121.571 147.486 122.56 145 122.562ZM154.375 106.156H149.688V101.469H154.375V106.156Z" fill="#121212"/>
</svg>
