<svg width="271" height="271" viewBox="0 0 271 271" fill="none" xmlns="http://www.w3.org/2000/svg">
<rect x="2.5" y="2.5" width="246" height="246" rx="7.5" fill="#FFFCE8" stroke="#121212" stroke-width="5"/>
<rect x="22.5" y="22.5" width="246" height="246" rx="7.5" fill="#FCE000" stroke="#121212" stroke-width="5"/>
<path d="M149.702 118.654L152.826 133.786L155.504 129.69C156.318 128.454 157.979 128.112 159.214 128.924L163.305 131.603L159.554 113.389C156.795 115.986 153.395 117.804 149.702 118.654Z" fill="#121212"/>
<path d="M160.987 97.7826C160.987 106.659 153.792 113.855 144.916 113.855C136.04 113.855 128.844 106.659 128.844 97.7826C128.844 88.9066 136.04 81.7117 144.916 81.7117C153.792 81.7117 160.987 88.9066 160.987 97.7826Z" fill="#121212"/>
<path d="M135.22 129.69L137.911 133.786L140.998 118.836C137.319 118.151 133.884 116.512 131.038 114.082L127.419 131.616L131.51 128.937C132.742 128.122 134.403 128.458 135.22 129.69Z" fill="#121212"/>
<path d="M187.666 71H102.164C97.6707 71.0057 94.0292 74.6472 94.0234 79.1402V212.854C94.0269 217.35 97.6684 220.994 102.164 221H187.666C192.162 220.995 195.806 217.35 195.809 212.854V79.1402C195.804 74.6461 192.161 71.0046 187.666 71ZM120.863 136.866L126.638 108.91C120.472 98.808 123.661 85.621 133.763 79.4549C143.864 73.2888 157.052 76.4783 163.218 86.5788C167.157 93.031 167.404 101.081 163.87 107.763L169.875 136.866C170.175 138.314 169.244 139.732 167.795 140.032C167.099 140.176 166.374 140.038 165.78 139.646L158.521 134.873L153.756 142.132C152.942 143.368 151.282 143.711 150.046 142.899C149.452 142.507 149.037 141.896 148.894 141.2L145.377 124.161L141.857 141.2C141.559 142.649 140.143 143.582 138.694 143.284C137.997 143.141 137.386 142.726 136.996 142.132L132.225 134.873L124.966 139.646C123.733 140.464 122.072 140.129 121.254 138.897C120.856 138.299 120.716 137.568 120.863 136.866ZM179.737 199.571H110.094V194.214H179.737V199.571ZM179.737 178.143H110.094V172.786H179.737V178.143ZM179.737 159.393H110.094V154.036H179.737V159.393Z" fill="#121212"/>
</svg>
