<svg width="100" height="100" viewBox="0 0 100 100" fill="none" xmlns="http://www.w3.org/2000/svg">
<path d="M91.2391 38.475L67.1969 29.7328C64.9938 28.9312 63.2813 27.2031 62.5 24.9906L56.8063 8.85938C55.2656 4.49531 51.1219 1.5625 46.4922 1.5625H18.75C12.7203 1.5625 7.8125 6.46875 7.8125 12.5V44.1203C4.20312 45.2016 1.5625 48.5516 1.5625 52.5078C1.5625 54.2406 2.07031 55.9219 3.03281 57.3656L4.17344 59.0781C6.55469 62.6484 7.8125 66.8031 7.8125 71.0938C7.8125 75.3844 6.55469 79.5391 4.175 83.1078L3.03438 84.8203C2.07031 86.2656 1.5625 87.9453 1.5625 89.6797C1.5625 94.5078 5.49219 98.4375 10.3203 98.4375C12.0531 98.4375 13.7344 97.9297 15.1781 96.9672L15.625 96.6688V98.4375H18.75V90.625C18.75 90.2094 18.5859 89.8125 18.2922 89.5203L15.625 86.8531V70.3125C15.625 69.45 16.325 68.75 17.1875 68.75C18.05 68.75 18.75 69.45 18.75 70.3125V75H21.875V70.3125V64.0625C21.875 63.2 22.575 62.5 23.4375 62.5C24.3 62.5 25 63.2 25 64.0625V75H28.125V64.0625V60.9375C28.125 60.075 28.825 59.375 29.6875 59.375C30.55 59.375 31.25 60.075 31.25 60.9375V64.0625V75H34.375V64.0625C34.375 63.2 35.075 62.5 35.9375 62.5C36.8 62.5 37.5 63.2 37.5 64.0625V79.6875V84.375H40.625V79.6875C40.625 78.825 41.325 78.125 42.1875 78.125C43.05 78.125 43.75 78.825 43.75 79.6875V85.1016L35.0703 90.8875C34.6359 91.1781 34.375 91.6656 34.375 92.1875V98.4375H37.5V93.4984C39.4875 94.1766 41.3813 95.0906 43.1328 96.2578L44.1953 96.9656C45.6406 97.9281 47.3203 98.4359 49.0531 98.4359C53.8828 98.4375 57.8125 94.5078 57.8125 89.6797C57.8125 87.9469 57.3047 86.2656 56.3422 84.8219L55.2016 83.1094C55.1375 83.0125 55.0828 82.9109 55.0188 82.8141H87.5C93.5297 82.8141 98.4375 77.9062 98.4375 71.8766V48.7547C98.4375 44.1719 95.5438 40.0406 91.2391 38.475ZM49.0547 95.3125C47.9391 95.3125 46.8594 94.9844 45.9297 94.3672L44.8672 93.6594C43.4047 92.6844 41.85 91.875 40.2375 91.2L46.1797 87.2375C46.6141 86.9469 46.875 86.4594 46.875 85.9375V79.6875C46.875 77.1031 44.7719 75 42.1875 75C41.6375 75 41.1156 75.1125 40.625 75.2875V64.0625C40.625 61.4781 38.5219 59.375 35.9375 59.375C35.3203 59.375 34.7344 59.5016 34.1938 59.7188C33.6547 57.7266 31.8484 56.25 29.6875 56.25C27.5266 56.25 25.7219 57.7266 25.1812 59.7188C24.6406 59.5016 24.0547 59.375 23.4375 59.375C20.8531 59.375 18.75 61.4781 18.75 64.0625V65.9125C18.2594 65.7375 17.7375 65.625 17.1875 65.625C14.6031 65.625 12.5 67.7281 12.5 70.3125V87.5C12.5 87.9156 12.6641 88.3125 12.9578 88.6047L15.625 91.2719V92.9781C15.2516 93.2016 14.8719 93.4156 14.5078 93.6578L13.4453 94.3656C12.5172 94.9844 11.4359 95.3125 10.3203 95.3125C7.21406 95.3125 4.6875 92.7859 4.6875 89.6797C4.6875 88.5641 5.01562 87.4844 5.63281 86.5547L6.77344 84.8422C9.49844 80.7594 10.9375 76.0047 10.9375 71.0938C10.9375 66.1828 9.49844 61.4281 6.775 57.3453L5.63438 55.6328C5.01562 54.7047 4.6875 53.6234 4.6875 52.5078C4.6875 49.4016 7.21406 46.875 10.3203 46.875C11.4359 46.875 12.5156 47.2016 13.4453 47.8203L14.5078 48.5281C19.0188 51.5359 24.2672 53.125 29.6875 53.125C35.1078 53.125 40.3563 51.5359 44.8672 48.5297L45.9297 47.8219C46.8594 47.2031 47.9391 46.8766 49.0547 46.8766C52.1609 46.875 54.6875 49.4016 54.6875 52.5078C54.6875 53.6234 54.3594 54.7031 53.7422 55.6328L52.6016 57.3453C49.8766 61.4281 48.4375 66.1828 48.4375 71.0938C48.4375 76.0047 49.8766 80.7594 52.6 84.8422L53.7406 86.5547C54.3594 87.4844 54.6859 88.5641 54.6859 89.6797C54.6875 92.7859 52.1609 95.3125 49.0547 95.3125ZM23.4375 28.125V10.9375H29.6875V20.3125H32.8125V10.9375H39.0625V34.375H42.1875V10.9375H45.1219C46.4438 10.9375 47.6281 11.775 48.0672 13.0219L48.4375 14.0734V43.7953C46.9234 43.9016 45.4656 44.3734 44.1953 45.2203L43.1328 45.9281C42.8234 46.1344 42.5031 46.3188 42.1875 46.5094V40.625H39.0625V48.1C37.0656 48.9391 34.9672 49.5094 32.8125 49.7875V26.5625H29.6875V50C27.5578 50 25.4625 49.7078 23.4375 49.1672V34.375H20.3125V48.1C19.2375 47.6484 18.1953 47.1188 17.1875 46.5109V14.0625C17.1875 12.3391 18.5891 10.9375 20.3125 10.9375V28.125H23.4375ZM60.9375 43.75V38.6266L67.1875 40.7094V48.4375H70.3125V41.7516L76.5625 43.8344V59.375H79.6875V44.8766L86.925 47.2891C88.2031 47.7156 89.0625 48.9063 89.0625 50.2531V70.3125C89.0625 72.0359 87.6609 73.4375 85.9375 73.4375H79.6875V65.625H76.5625V73.4375H70.3125V54.6875H67.1875V73.4375H60.9375V60.9375H57.8125V73.4375H51.7031C51.6188 72.6625 51.5625 71.8813 51.5625 71.0938C51.5625 66.8031 52.8203 62.6484 55.2 59.0797L56.3406 57.3672C57.3031 55.9219 57.8109 54.2422 57.8109 52.5094C57.8109 48.5516 55.1703 45.2031 51.5609 44.1219V22.9266L55.5734 34.2953C55.9953 35.4906 56.8016 36.4969 57.8109 37.2359V43.75H60.9375ZM95.3125 71.875C95.3125 76.1828 91.8078 79.6875 87.5 79.6875H53.3531C52.9141 78.6734 52.5547 77.6297 52.2766 76.5625H85.9375C89.3844 76.5625 92.1875 73.7594 92.1875 70.3125V50.2531C92.1875 47.5578 90.4688 45.175 87.9141 44.325L60.4813 35.1797C59.5734 34.8781 58.8406 34.1578 58.5234 33.2547L51.0141 11.9828C50.1344 9.48906 47.7656 7.8125 45.1219 7.8125H20.3125C16.8656 7.8125 14.0625 10.6156 14.0625 14.0625V44.5891C13.0828 44.125 12.0234 43.8719 10.9375 43.7953V12.5C10.9375 8.19219 14.4422 4.6875 18.75 4.6875H46.4922C49.7984 4.6875 52.7594 6.78125 53.8594 9.9L59.5531 26.0313C60.6469 29.1281 63.0438 31.5484 66.1297 32.6703L90.1719 41.4125C93.2469 42.5312 95.3125 45.4813 95.3125 48.7547V71.875Z" fill="white"/>
</svg>
