<svg width="233" height="136" viewBox="0 0 233 136" fill="none" xmlns="http://www.w3.org/2000/svg">
<path fill-rule="evenodd" clip-rule="evenodd" d="M116.5 106.792C137.947 106.792 155.333 89.405 155.333 67.9583C155.333 46.5113 137.947 29.125 116.5 29.125C95.0528 29.125 77.6665 46.5113 77.6665 67.9583C77.6665 89.405 95.0528 106.792 116.5 106.792ZM116.5 88.3138C105.258 88.3138 96.1445 79.2006 96.1445 67.9583C96.1445 56.7161 105.258 47.603 116.5 47.603C127.742 47.603 136.855 56.7161 136.855 67.9583C136.855 79.2006 127.742 88.3138 116.5 88.3138Z" fill="white"/>
<path d="M67.9582 67.9583C67.9582 73.3202 63.6117 77.6667 58.2498 77.6667C52.8881 77.6667 48.5415 73.3202 48.5415 67.9583C48.5415 62.5964 52.8881 58.25 58.2498 58.25C63.6117 58.25 67.9582 62.5964 67.9582 67.9583Z" fill="white"/>
<path d="M174.75 77.6667C180.112 77.6667 184.458 73.3202 184.458 67.9583C184.458 62.5964 180.112 58.25 174.75 58.25C169.388 58.25 165.042 62.5964 165.042 67.9583C165.042 73.3202 169.388 77.6667 174.75 77.6667Z" fill="white"/>
<path fill-rule="evenodd" clip-rule="evenodd" d="M203.875 0C219.961 0 233 13.0397 233 29.125V106.792C233 122.877 219.961 135.917 203.875 135.917H29.125C13.0397 135.917 0 122.877 0 106.792V29.125C0 13.0397 13.0397 0 29.125 0H203.875ZM38.8333 19.4167H194.167C194.167 21.9665 194.669 24.4914 195.644 26.8471C196.621 29.2029 198.051 31.3434 199.854 33.1463C201.657 34.9493 203.797 36.3796 206.153 37.3553C208.509 38.3311 211.034 38.8333 213.583 38.8333V97.0833C211.034 97.0833 208.509 97.5853 206.153 98.5609C203.797 99.5376 201.657 100.968 199.854 102.77C198.051 104.573 196.621 106.714 195.644 109.069C194.669 111.425 194.167 113.951 194.167 116.5H38.8333C38.8333 113.951 38.3311 111.425 37.3553 109.069C36.3796 106.714 34.9493 104.573 33.1463 102.77C31.3434 100.968 29.2029 99.5376 26.8471 98.5609C24.4914 97.5853 21.9665 97.0833 19.4167 97.0833V38.8333C21.9665 38.8333 24.4914 38.3311 26.8471 37.3553C29.2029 36.3796 31.3434 34.9493 33.1463 33.1463C34.9493 31.3434 36.3796 29.2029 37.3553 26.8471C38.3311 24.4914 38.8333 21.9665 38.8333 19.4167Z" fill="white"/>
</svg>
