<svg width="168" height="168" viewBox="0 0 168 168" fill="none" xmlns="http://www.w3.org/2000/svg">
<path d="M154 148.75C154 151.62 151.62 154 148.75 154H19.25C16.38 154 14 151.62 14 148.75C14 145.88 16.38 143.5 19.25 143.5H148.75C151.62 143.5 154 145.88 154 148.75Z" fill="white"/>
<path d="M107.74 31.652L32.5598 106.832C29.6898 109.702 25.0698 109.702 22.2698 106.832H22.1998C12.4698 97.0319 12.4698 81.2119 22.1998 71.4819L72.2498 21.432C82.0498 11.632 97.8698 11.632 107.67 21.432C110.54 24.162 110.54 28.852 107.74 31.652Z" fill="white"/>
<path d="M145.75 59.4322L124.4 38.0822C121.53 35.2122 116.91 35.2122 114.11 38.0822L38.9298 113.262C36.0598 116.062 36.0598 120.682 38.9298 123.552L60.2798 144.972C70.0798 154.702 85.8998 154.702 95.6998 144.972L145.68 94.9221C155.62 85.1221 155.62 69.2322 145.75 59.4322ZM89.3298 122.642L80.8598 131.182C79.1098 132.932 76.2398 132.932 74.4198 131.182C72.6698 129.432 72.6698 126.562 74.4198 124.742L82.9598 116.202C84.6398 114.522 87.5798 114.522 89.3298 116.202C91.0798 117.952 91.0798 120.962 89.3298 122.642ZM117.12 94.8521L100.04 112.002C98.2898 113.682 95.4198 113.682 93.5998 112.002C91.8498 110.252 91.8498 107.382 93.5998 105.562L110.75 88.4121C112.43 86.7321 115.37 86.7321 117.12 88.4121C118.87 90.2321 118.87 93.1021 117.12 94.8521Z" fill="white"/>
</svg>
