<svg width="160" height="160" viewBox="0 0 160 160" fill="none" xmlns="http://www.w3.org/2000/svg">
<path d="M99.9998 53.3333C99.9998 55.1014 99.2974 56.7971 98.0472 58.0473C96.797 59.2976 95.1013 60 93.3332 60H39.9998C38.2317 60 36.536 59.2976 35.2858 58.0473C34.0355 56.7971 33.3332 55.1014 33.3332 53.3333C33.3332 51.5652 34.0355 49.8695 35.2858 48.6192C36.536 47.369 38.2317 46.6666 39.9998 46.6666H93.3332C95.1013 46.6666 96.797 47.369 98.0472 48.6192C99.2974 49.8695 99.9998 51.5652 99.9998 53.3333ZM93.3332 73.3333H39.9998C38.2317 73.3333 36.536 74.0357 35.2858 75.2859C34.0355 76.5361 33.3332 78.2318 33.3332 80C33.3332 81.7681 34.0355 83.4638 35.2858 84.714C36.536 85.9642 38.2317 86.6666 39.9998 86.6666H93.3332C95.1013 86.6666 96.797 85.9642 98.0472 84.714C99.2974 83.4638 99.9998 81.7681 99.9998 80C99.9998 78.2318 99.2974 76.5361 98.0472 75.2859C96.797 74.0357 95.1013 73.3333 93.3332 73.3333ZM66.6665 100H39.9998C38.2317 100 36.536 100.702 35.2858 101.953C34.0355 103.203 33.3332 104.899 33.3332 106.667C33.3332 108.435 34.0355 110.13 35.2858 111.381C36.536 112.631 38.2317 113.333 39.9998 113.333H66.6665C68.4346 113.333 70.1303 112.631 71.3805 111.381C72.6308 110.13 73.3332 108.435 73.3332 106.667C73.3332 104.899 72.6308 103.203 71.3805 101.953C70.1303 100.702 68.4346 100 66.6665 100ZM153.333 80V133.333C153.333 138.638 151.226 143.725 147.475 147.475C143.725 151.226 138.637 153.333 133.333 153.333H26.6665C21.3622 153.333 16.2751 151.226 12.5244 147.475C8.77364 143.725 6.6665 138.638 6.6665 133.333V26.6666C6.6665 21.3623 8.77364 16.2752 12.5244 12.5245C16.2751 8.77376 21.3622 6.66663 26.6665 6.66663H106.666C111.971 6.66663 117.058 8.77376 120.809 12.5245C124.559 16.2752 126.666 21.3623 126.666 26.6666V73.3333H146.666C148.435 73.3333 150.13 74.0357 151.381 75.2859C152.631 76.5361 153.333 78.2318 153.333 80ZM113.333 26.6666C113.333 24.8985 112.631 23.2028 111.381 21.9526C110.13 20.7023 108.435 20 106.666 20H26.6665C24.8984 20 23.2027 20.7023 21.9525 21.9526C20.7022 23.2028 19.9998 24.8985 19.9998 26.6666V133.333C19.9998 135.101 20.7022 136.797 21.9525 138.047C23.2027 139.298 24.8984 140 26.6665 140H113.333V26.6666ZM140 86.6666H126.666V140H133.333C135.101 140 136.797 139.298 138.047 138.047C139.297 136.797 140 135.101 140 133.333V86.6666Z" fill="white"/>
</svg>
